<svg xmlns="http://www.w3.org/2000/svg" width="208" height="208" viewBox="0 0 208 208">
  <g id="Anti_Ragging_Policy_Icon_Section" data-name="Anti Ragging Policy Icon Section" transform="translate(-432.327 -1739.254)">
    <g id="Path_25" data-name="Path 25" transform="translate(432.327 1739.254)" fill="#fff" opacity="0.11">
      <path d="M 104 195.5 C 53.54673004150391 195.5 12.5 154.4532623291016 12.5 104 C 12.5 53.54673004150391 53.54673004150391 12.5 104 12.5 C 154.4532623291016 12.5 195.5 53.54673004150391 195.5 104 C 195.5 154.4532623291016 154.4532623291016 195.5 104 195.5 Z" stroke="none"/>
      <path d="M 104 25 C 60.43925476074219 25 25 60.43925476074219 25 104 C 25 147.5607452392578 60.43925476074219 183 104 183 C 147.5607452392578 183 183 147.5607452392578 183 104 C 183 60.43925476074219 147.5607452392578 25 104 25 M 104 0 C 161.4375915527344 0 208 46.56239318847656 208 104 C 208 161.4375915527344 161.4375915527344 208 104 208 C 46.56239318847656 208 0 161.4375915527344 0 104 C 0 46.56239318847656 46.56239318847656 0 104 0 Z" stroke="none" fill="#fff"/>
    </g>
    <g id="anti-ragging-symbol" transform="translate(452.327 1759.254)">
      <g id="Path_24" data-name="Path 24" transform="translate(0 0)" fill="#fff">
        <path d="M 83.99999237060547 163 C 73.33286285400391 163 62.98746490478516 160.9119415283203 53.25115203857422 156.7938385009766 C 48.57115173339844 154.8143615722656 44.05691528320312 152.3640747070312 39.83383560180664 149.5110015869141 C 35.64957046508789 146.6841888427734 31.71470260620117 143.4376068115234 28.1385440826416 139.8614501953125 C 24.56241416931152 136.2852935791016 21.3158073425293 132.3504486083984 18.48899269104004 128.1661834716797 C 15.63591384887695 123.9430770874023 13.18562412261963 119.428840637207 11.20615005493164 114.7488403320312 C 7.088045120239258 105.0125503540039 4.999992370605469 94.66712951660156 4.999992370605469 84 C 4.999992370605469 73.33287048339844 7.088045120239258 62.98747253417969 11.20615005493164 53.25115966796875 C 13.18562412261963 48.57115936279297 15.63591384887695 44.05692291259766 18.48899269104004 39.83384323120117 C 21.3158073425293 35.64957809448242 24.56241416931152 31.7147102355957 28.1385440826416 28.13855171203613 C 31.71470260620117 24.56242179870605 35.64957046508789 21.31581497192383 39.83383560180664 18.48900032043457 C 44.05691528320312 15.63592147827148 48.57115173339844 13.18563175201416 53.25115203857422 11.20615768432617 C 62.98746490478516 7.088052749633789 73.33286285400391 5 83.99999237060547 5 C 94.66712188720703 5 105.0125198364258 7.088052749633789 114.7488098144531 11.20615768432617 C 119.4288101196289 13.18563175201416 123.9430465698242 15.63592147827148 128.1661529541016 18.48900032043457 C 132.3504180908203 21.31581497192383 136.2852630615234 24.56242179870605 139.8614196777344 28.13855171203613 C 143.4375762939453 31.7147102355957 146.6841430664062 35.64957809448242 149.510986328125 39.83384323120117 C 152.3640441894531 44.05692291259766 154.8143615722656 48.57115936279297 156.7938385009766 53.25115966796875 C 160.9119415283203 62.98747253417969 163 73.33287048339844 163 84 C 163 94.66712951660156 160.9119415283203 105.0125503540039 156.7938385009766 114.7488403320312 C 154.8143615722656 119.428840637207 152.3640441894531 123.9430770874023 149.510986328125 128.1661834716797 C 146.6841430664062 132.3504486083984 143.4375762939453 136.2852935791016 139.8614196777344 139.8614501953125 C 136.2852630615234 143.4376068115234 132.3504180908203 146.6841888427734 128.1661529541016 149.5110015869141 C 123.9430465698242 152.3640747070312 119.4288101196289 154.8143615722656 114.7488098144531 156.7938385009766 C 105.0125198364258 160.9119415283203 94.66712188720703 163 83.99999237060547 163 Z" stroke="none"/>
        <path d="M 83.99999237060547 10 C 43.19624328613281 10 9.999984741210938 43.19625091552734 9.999984741210938 84 C 9.999984741210938 124.8037490844727 43.19624328613281 158 83.99999237060547 158 C 124.8037414550781 158 158 124.8037490844727 158 84 C 158 43.19625091552734 124.8037414550781 10 83.99999237060547 10 M 83.99999237060547 0 C 130.3919067382812 0 168 37.60809326171875 168 84 C 168 130.3919372558594 130.3919067382812 168 83.99999237060547 168 C 37.60809326171875 168 -1.52587890625e-05 130.3919372558594 -1.52587890625e-05 84 C -1.52587890625e-05 37.60809326171875 37.60809326171875 0 83.99999237060547 0 Z" stroke="none" fill="#d10404"/>
      </g>
      <text id="RAGGING" transform="translate(23.606 95.313)" font-size="28" font-family="OpenSansSemiCondensed-ExtraBold, Open Sans SemiCondensed" font-weight="800"><tspan x="0" y="0">RAGGING</tspan></text>
      <path id="Path_21" data-name="Path 21" d="M0,0,13.357,1.779,23.969,154.518l-13.357-1.779Z" transform="matrix(0.766, 0.643, -0.643, 0.766, 122.928, 17.426)" fill="#d10404"/>
    </g>
  </g>
</svg>
