<svg xmlns="http://www.w3.org/2000/svg" width="242" height="189.911" viewBox="0 0 242 189.911">
  <g id="books-icon" transform="translate(0 -54)" opacity="0.1">
    <path id="Path_10" data-name="Path 10" d="M168.95,124.339v119.33H0V54H54.751V89.242H76.875V73.461h40.761V94.955H161.3c-1.452-5.131-2.856-10.214-4.357-15.443,13.022-3.631,26.141-7.213,39.405-10.892,3.292,12.1,6.487,23.914,9.73,35.678,3,10.941,6.1,21.833,9.2,32.773q7.7,27.376,15.346,54.8c3.534,12.683,6.971,25.415,10.456,38.1A17.943,17.943,0,0,0,242,232.2v.968c-1.791.339-3.631.532-5.373,1.017q-13.434,3.7-26.771,7.552c-2.421.678-4.793,1.4-7.31,2.178-2.808-10.166-5.567-20.042-8.278-29.917-2.566-9.343-5.131-18.638-7.746-27.981-2.953-10.65-5.858-21.252-8.811-31.9-2.566-9.246-5.131-18.444-7.7-27.69-.194-.678-.29-1.355-.436-2.033-.145-.533-.339-1.017-.484-1.549l-.436.145C168.756,123.371,168.853,123.855,168.95,124.339ZM84.572,112.382a2.921,2.921,0,0,1,.387.387h24.108a2.921,2.921,0,0,0,.387-.387v-3.921H84.523C84.572,109.913,84.572,111.172,84.572,112.382Zm24.544,12.683a2.921,2.921,0,0,0,.387-.387v-3.921H84.572v3.921a2.921,2.921,0,0,1,.387.387Zm51.556-22.026H117.829V235.682a1.81,1.81,0,0,0,.533.194c14.087,0,28.223-.048,42.31-.048.145-.145.242-.29.387-.436.048-.533.048-1.113.048-1.646V105.024c0-.533-.048-1.113-.048-1.646C160.914,103.281,160.817,103.136,160.672,103.039ZM47.006,220.287c0-.533.048-1.113.048-1.646V79.076c0-.533-.048-1.113-.048-1.646-.145-.145-.242-.29-.387-.436H7.746v143.68H46.619Zm161.107,13.7c3.486-.92,6.584-1.694,9.682-2.517,4.405-1.21,8.811-2.372,13.167-3.728a2,2,0,0,0,.823-1.791c-1.065-4.212-2.324-8.375-3.485-12.538-3.486-12.49-6.923-24.931-10.36-37.421-2.566-9.246-5.035-18.493-7.6-27.739-1.694-6.1-3.534-12.1-5.18-18.2-.387-1.452-.775-1.743-2.227-1.21-1.936.678-3.97,1.017-5.954,1.6-5.083,1.4-10.118,2.9-15.2,4.212-1.259.339-1.307.629-.92,1.888,1.4,4.405,2.614,8.907,3.824,13.409q6.39,23.164,12.78,46.376c2.566,9.295,5.083,18.638,7.649,27.981C206.128,227.549,207.145,230.792,208.113,233.987ZM54.993,97.327v138.5H76.778V97.327ZM84.911,133V221.74h24.883V133Zm113.521-27.5c-2.566-9.246-5.083-18.2-7.6-27.351-2.9.871-5.519,1.743-8.133,2.469-4.744,1.307-9.585,2.566-14.329,3.921-.581.194-1.5,1.259-1.355,1.694,2.275,8.569,4.7,17.089,7.213,26C182.262,109.962,190.3,107.735,198.431,105.508Zm-88.59-5.035V81.3H84.959v19.17ZM46.57,68.91V61.842H7.552V68.91Zm.048,166.917v-7.068H7.5v7.068ZM178.486,127.534c8.036-2.275,15.927-4.5,24.108-6.826-.678-2.614-1.259-4.986-1.985-7.7-8.23,2.275-16.266,4.5-24.3,6.729C177.034,122.354,177.712,124.872,178.486,127.534ZM84.572,235.778H109.5v-5.906H84.572Z" transform="translate(0 0)" fill="#003d68"/>
    <path id="Path_11" data-name="Path 11" d="M348.742,197.546a13.886,13.886,0,0,1-.242-1.5l.436-.145c.145.533.339,1.017.484,1.549A3.8,3.8,0,0,1,348.742,197.546Z" transform="translate(-179.792 -73.207)" fill="#003d68"/>
    <path id="Path_12" data-name="Path 12" d="M262.036,393.8h24.108a2.921,2.921,0,0,1,.387.387v7.31H261.6v-7.358A1.7,1.7,0,0,0,262.036,393.8Z" transform="translate(-134.96 -175.304)" fill="#003d68"/>
    <path id="Path_13" data-name="Path 13" d="M286.783,229.6v7.5H261.9v-7.5Z" transform="translate(-135.115 -90.593)" fill="#003d68"/>
    <path id="Path_14" data-name="Path 14" d="M286.783,172.9v7.5H261.9v-7.5Z" transform="translate(-135.115 -61.341)" fill="#003d68"/>
    <path id="Path_15" data-name="Path 15" d="M286.783,201.3v7.5H261.9v-7.5Z" transform="translate(-135.115 -75.993)" fill="#003d68"/>
    <path id="Path_16" data-name="Path 16" d="M262.087,393.8a2.924,2.924,0,0,0-.387.387Z" transform="translate(-135.012 -175.304)" fill="#003d68"/>
    <path id="Path_17" data-name="Path 17" d="M312.787,394.187a2.925,2.925,0,0,1-.387-.387Z" transform="translate(-161.168 -175.304)" fill="#003d68"/>
    <path id="Path_18" data-name="Path 18" d="M128.1,240.007V205.2h7.7v34.9H128.39l-.1-.145Z" transform="translate(-66.087 -78.005)" fill="#003d68"/>
    <path id="Path_19" data-name="Path 19" d="M135.952,365.585H128.4V336.2h7.552Z" transform="translate(-66.242 -145.588)" fill="#003d68"/>
    <path id="Path_20" data-name="Path 20" d="M136.046,162.2c0,4.018-.048,7.891,0,11.715.048,1.452-.533,1.985-1.936,1.888-1.888-.1-3.776,0-5.809,0V162.2Z" transform="translate(-66.19 -55.821)" fill="#003d68"/>
    <path id="Path_21" data-name="Path 21" d="M128.3,294h7.746c0,3.824.048,7.6-.048,11.328,0,.484-.92,1.259-1.452,1.307-2.033.145-4.066.048-6.2.048C128.3,302.375,128.3,298.26,128.3,294Z" transform="translate(-66.19 -123.817)" fill="#003d68"/>
    <path id="Path_22" data-name="Path 22" d="M128.048,277.048l.194-.048.1.145c-.1.1-.242.145-.339.242A.717.717,0,0,1,128.048,277.048Z" transform="translate(-66.036 -115.046)" fill="#003d68"/>
  </g>
</svg>
