<svg xmlns="http://www.w3.org/2000/svg" width="100" height="100" viewBox="0 0 100 100">
  <g id="civil-icon" transform="translate(-61.482 -32)">
    <rect id="Bg_Supp." data-name="Bg Supp." width="100" height="100" transform="translate(61.482 32)" fill="#fff" opacity="0"/>
    <g id="civil" transform="translate(78.783 35)">
      <path id="XMLID_170_" d="M28.844,17.222a9.122,9.122,0,1,0-9.122,9.122A9.084,9.084,0,0,0,28.844,17.222Zm-15.2,0A6.081,6.081,0,1,1,19.722,23.3,6.235,6.235,0,0,1,13.641,17.222Z" transform="translate(10.169 8.32)" fill="#fff"/>
      <path id="XMLID_173_" d="M63.541,92.64,49.148,62.03a31.867,31.867,0,0,0,9.122-8.919c.2-.405.608-1.014.608-1.014l-2.635-1.622s-.405.608-.608,1.014a29.338,29.338,0,0,1-7.906,7.906L39.418,41.556a18.213,18.213,0,0,0,8.919-15.812A18.544,18.544,0,0,0,31.31,7.3V1.622A1.6,1.6,0,0,0,29.688,0a1.492,1.492,0,0,0-1.622,1.622V7.095a18.5,18.5,0,0,0-8.311,33.853L13.065,59.8a28.287,28.287,0,0,1-9.122-8.514L3.335,50.07.7,51.692a5.832,5.832,0,0,0,.811,1.216,30.363,30.363,0,0,0,10.541,9.73l-10.744,30a1.777,1.777,0,0,0,1.014,2.027H2.93a1.524,1.524,0,0,0,1.419-1.014l10.541-29.6a36.13,36.13,0,0,0,32.029-.608L61.311,93.856a1.357,1.357,0,0,0,1.419.811.745.745,0,0,0,.608-.2C63.744,94.261,63.946,93.45,63.541,92.64Zm-49.056-67.1A15.406,15.406,0,1,1,29.891,40.948,15.4,15.4,0,0,1,14.484,25.542ZM29.891,64.463A33.139,33.139,0,0,1,15.7,61.219l6.69-18.852a18.675,18.675,0,0,0,7.7,1.622,19.739,19.739,0,0,0,6.892-1.216L45.5,60.814a37.515,37.515,0,0,1-15.609,3.649Z" transform="translate(0)" fill="#fff"/>
    </g>
  </g>
</svg>
