<svg xmlns="http://www.w3.org/2000/svg" width="100" height="100" viewBox="0 0 100 100">
  <g id="cse-icon" transform="translate(-55 -18)">
    <rect id="Bg_Supp." data-name="Bg Supp." width="100" height="100" transform="translate(55 18)" fill="#fff" opacity="0"/>
    <g id="cse-icon-2" data-name="cse-icon" transform="translate(59 24)">
      <path id="XMLID_338_" d="M85.142,8.973H69V.7H23.4V8.973H7.258A6.718,6.718,0,0,0,.6,15.631V70.916a6.718,6.718,0,0,0,6.658,6.658H85.142A6.718,6.718,0,0,0,91.8,70.916V15.631A6.466,6.466,0,0,0,85.142,8.973ZM26.427,3.727H65.973v45.8H26.427ZM7.258,12H23.4V52.555H69.2V12H85.343a3.617,3.617,0,0,1,3.632,3.632V64.056H3.627V15.631A3.617,3.617,0,0,1,7.258,12ZM85.142,74.75H7.258a3.617,3.617,0,0,1-3.632-3.632V67.284H88.975v3.834a3.94,3.94,0,0,1-3.834,3.632Z" transform="translate(-0.6 -0.7)" fill="#fff"/>
      <path id="XMLID_341_" d="M51.636,42.8H15.116a1.816,1.816,0,0,0,0,3.632h36.52a1.808,1.808,0,0,0,1.816-1.816A2.129,2.129,0,0,0,51.636,42.8Z" transform="translate(12.325 42.145)" fill="#fff"/>
      <rect id="XMLID_342_" width="26.835" height="3.027" transform="translate(29.862 14.527)" fill="#fff"/>
      <rect id="XMLID_343_" width="26.835" height="3.027" transform="translate(29.862 22.598)" fill="#fff"/>
      <rect id="XMLID_344_" width="12.106" height="3.027" transform="translate(29.862 29.257)" fill="#fff"/>
    </g>
  </g>
</svg>
