<svg xmlns="http://www.w3.org/2000/svg" width="100" height="100" viewBox="0 0 100 100">
  <g id="ece-icon" transform="translate(-58.148 -18)">
    <rect id="Bg_Supp." data-name="Bg Supp." width="100" height="100" transform="translate(58.148 18)" fill="#fff" opacity="0"/>
    <path id="icon" d="M88.081,46.28a1.682,1.682,0,0,0,1.706-1.706,1.57,1.57,0,0,0-1.706-1.706H74.218V29.431H88.081a1.682,1.682,0,0,0,1.706-1.706,1.57,1.57,0,0,0-1.706-1.706H74.218V23.033A7.1,7.1,0,0,0,67.18,16H63.341V1.706a1.706,1.706,0,0,0-3.412,0V16.422H46.493V1.706A1.682,1.682,0,0,0,44.787,0c-1.066,0-1.493.64-1.493,1.706V16.422H29.858V1.706A1.682,1.682,0,0,0,28.152,0a1.521,1.521,0,0,0-1.493,1.706V16.422H23.673a7.1,7.1,0,0,0-7.038,7.038v2.986H1.706A1.682,1.682,0,0,0,0,28.152a1.57,1.57,0,0,0,1.706,1.706H16.422V43.294H1.706A1.682,1.682,0,0,0,0,45a1.57,1.57,0,0,0,1.706,1.706H16.422V60.142H1.706A1.682,1.682,0,0,0,0,61.848a1.57,1.57,0,0,0,1.706,1.706H16.422v3.412A7.1,7.1,0,0,0,23.46,74h2.986V88.294A1.648,1.648,0,0,0,27.938,90a1.682,1.682,0,0,0,1.706-1.706V74H43.081V88.294A1.682,1.682,0,0,0,44.787,90a1.57,1.57,0,0,0,1.706-1.706V74H59.929V88.294a1.706,1.706,0,1,0,3.412,0V74H67.18a7.1,7.1,0,0,0,7.038-7.038V63.555H88.081a1.682,1.682,0,0,0,1.706-1.706,1.57,1.57,0,0,0-1.706-1.706H74.218V46.706H88.081ZM71.019,66.54a3.823,3.823,0,0,1-3.839,3.839H23.673a3.823,3.823,0,0,1-3.839-3.839V23.46a3.823,3.823,0,0,1,3.839-3.839H66.967a3.823,3.823,0,0,1,3.839,3.839V66.54Z" transform="translate(63.148 22)" fill="#fff"/>
  </g>
</svg>
