<svg xmlns="http://www.w3.org/2000/svg" width="100" height="100" viewBox="0 0 100 100">
  <g id="eee-icon" transform="translate(-42.187 -18)">
    <rect id="Bg_Supp." data-name="Bg Supp." width="100" height="100" transform="translate(42.187 18)" fill="#fff" opacity="0"/>
    <g id="icon" transform="translate(48.242 20.75)">
      <path id="XMLID_67_" d="M34.068,8.738A27.1,27.1,0,0,0,9.14,33.475c-.761,9.514,3.615,18.648,11.607,24.737,2.664,2.093,2.474,6.089,2.474,6.279v9.324a7.991,7.991,0,0,0,5.708,7.611,1.144,1.144,0,0,0-.19.761,4.019,4.019,0,0,0,4,4H41.3a4.019,4.019,0,0,0,4-4,1.453,1.453,0,0,0-.381-.951,7.853,7.853,0,0,0,5.138-7.421v-9.7a7.975,7.975,0,0,1,2.474-6.66c7.04-5.709,11.036-13.51,11.036-21.883a27.362,27.362,0,0,0-8.753-19.98,28.076,28.076,0,0,0-20.741-6.85ZM42.44,82.188A1.1,1.1,0,0,1,41.3,83.329H32.545A1.1,1.1,0,0,1,31.4,82.188v-.381H42.821l-.381.381Zm-.19-3.045H31.213a5.116,5.116,0,0,1-5.138-5.138V64.682a14.217,14.217,0,0,0-.19-2.093H47.2a5.112,5.112,0,0,0,0,1.9v9.514a5.076,5.076,0,0,1-4.947,5.138Zm8.563-23.6a9.169,9.169,0,0,0-2.854,4.186H25.124a8.746,8.746,0,0,0-2.854-3.806A25.371,25.371,0,0,1,11.8,33.856,24.439,24.439,0,0,1,34.258,11.593h1.9a24.133,24.133,0,0,1,16.555,6.47,24.637,24.637,0,0,1,7.8,17.887C60.707,43.37,57.092,50.22,50.812,55.548Z" transform="translate(8.085 7.816)" fill="#fff"/>
      <path id="XMLID_71_" d="M24.122,13.32A1.5,1.5,0,0,0,25.645,11.8V1.522A1.5,1.5,0,0,0,24.122,0,1.4,1.4,0,0,0,22.6,1.522V11.988A1.357,1.357,0,0,0,24.122,13.32Z" transform="translate(20.314)" fill="#fff"/>
      <path id="XMLID_72_" d="M36.345,17.088a1.453,1.453,0,0,0,.951-.381L44.717,9.1A1.48,1.48,0,1,0,42.624,7L35.2,14.614a1.493,1.493,0,0,0,0,2.093,2.7,2.7,0,0,0,1.142.381Z" transform="translate(31.306 5.936)" fill="#fff"/>
      <path id="XMLID_137_" d="M51.188,22.2H40.722A1.5,1.5,0,0,0,39.2,23.722a1.4,1.4,0,0,0,1.522,1.522H51.188a1.522,1.522,0,1,0,0-3.045Z" transform="translate(35.301 20.043)" fill="#fff"/>
      <path id="XMLID_138_" d="M12.278,21.9H1.622A1.5,1.5,0,0,0,.1,23.422a1.4,1.4,0,0,0,1.522,1.522H12.088a1.5,1.5,0,0,0,1.522-1.522A1.357,1.357,0,0,0,12.278,21.9Z" transform="translate(0 19.772)" fill="#fff"/>
      <path id="XMLID_139_" d="M14.724,16.617a1.38,1.38,0,0,0,1.9,0,1.493,1.493,0,0,0,0-2.093L9.4,7.1A1.48,1.48,0,0,0,7.3,9.2Z" transform="translate(6.117 6.026)" fill="#fff"/>
    </g>
  </g>
</svg>
