<svg xmlns="http://www.w3.org/2000/svg" width="26" height="26" viewBox="0 0 26 26">
  <g id="email-icon" transform="translate(-790 -1733.168)">
    <rect id="Bg_Supp." data-name="Bg Supp." width="26" height="26" transform="translate(790 1733.168)" fill="#fff" opacity="0"/>
    <path id="email-icon-2" data-name="email-icon" d="M18.859.259a2.038,2.038,0,0,1,1.5.614,2.037,2.037,0,0,1,.614,1.5V14.94a2.1,2.1,0,0,1-2.112,2.111H2.112a2.038,2.038,0,0,1-1.5-.614A2.037,2.037,0,0,1,0,14.94V2.37A2.037,2.037,0,0,1,.614.873a2.038,2.038,0,0,1,1.5-.614Zm0,4.222V2.37l-8.4,5.254L2.112,2.37V4.482l8.349,5.2Z" transform="translate(792.515 1737.909)" fill="#7cbbe8"/>
  </g>
</svg>
