<svg xmlns="http://www.w3.org/2000/svg" width="527.78" height="401.572" viewBox="0 0 527.78 401.572">
  <path id="happy-people-jumping-celebrating-victory" d="M-1510.323-782.39c-5.391-4.63-3.432-12.72-5.981-20.884a12.687,12.687,0,0,1-.617-3.036c-.107-1.269-.027-2.39.644-6.024.161-.946.4-2.091.671-3.435a1.077,1.077,0,0,1,1.18-.722c.054-.9.107-1.817.161-2.713a21.083,21.083,0,0,1-6.062-1.742,256.881,256.881,0,0,1-11.776-88.885,46.506,46.506,0,0,1,.241-4.854q3.742-19.3,7.511-38.581c-3.487-.224-6.787-.523-9.87-.846a189.279,189.279,0,0,1,5.283-36.19c3.836-15.483,7.726-21.88,10.784-36.59a137.742,137.742,0,0,0,2.682-20.46h-.054a.284.284,0,0,1-.241-.324c.107-.572.241-1.12.375-1.693.054-1.394.081-2.713.107-3.983-.751-4.356-1.8-10.8-2.9-18.643-2.683-19.464-4.426-32.035-4.078-44.506.295-10.5,2.253-26.333,10.6-45.6a16.911,16.911,0,0,1,1.958-.249l-.161-.373a18.948,18.948,0,0,1-1.073-2.315c-.885-2.39,1.046-6.869,1.8-8.512.053-.075.134-.3.3-.573a4.455,4.455,0,0,1,1.823-1.966,2.091,2.091,0,0,1,1.341-.423,3.289,3.289,0,0,0,.671.05,3.769,3.769,0,0,0,.4-.075c.671-.2.671-.6,1.4-.871a3.132,3.132,0,0,1,1.395-.149c.993.05,1.046.348,1.717.3.778-.075.832-.5,1.636-.622s.912.249,1.717.249c1.315-.025,1.744-1.045,2.736-.921a2.06,2.06,0,0,1,1.341.946c.161.323.322.622.483.946a.365.365,0,0,1,.161-.025c.027,0,.053.025.08.025a2.006,2.006,0,0,1,1.1-1.045,2.178,2.178,0,0,1,1.18-.124,2.593,2.593,0,0,1,.778.274l.483,2.638c-.215,7.269-2.2,9.856-4.024,10.852a10.562,10.562,0,0,0-3.917,2.788c-.214.274-.376.5-.536.747a.859.859,0,0,0-.134.2,5.827,5.827,0,0,0-.3.573,23.691,23.691,0,0,1,2.012,1.269q-2.454,19.789-4.855,39.6a45.421,45.421,0,0,0,.108,16.726,38.5,38.5,0,0,0,5.15,12.644,38.131,38.131,0,0,0,4.587,5.8c.188-.075.4-.125.617-.2a17.61,17.61,0,0,1,1.985-.473h.107a12.474,12.474,0,0,0,.161-1.369,19.323,19.323,0,0,1-2.817-3.683c-.027-.051-.054-.076-.054-.124a36.292,36.292,0,0,0-1.878-4.729c-.188-.448-.375-1.021-.751-5.476a.642.642,0,0,1-.027-.224c-.4-.249-.885-.548-1.422-.946a5.712,5.712,0,0,1-2.038-2.365,4.6,4.6,0,0,1,.134-3.758,2.136,2.136,0,0,1,1.234-1.269,1.728,1.728,0,0,1,1.154.125c-.027-.075-.054-.15-.081-.249-.671-2.688.429-3.609-.349-5.775-.805-2.214-2.227-2.638-2.066-3.981.161-1.369,1.824-2.315,3.139-2.887a2.335,2.335,0,0,1-.832-.125,2.279,2.279,0,0,1-.724-.4,1.1,1.1,0,0,0-.161-.174,16.906,16.906,0,0,1,4.534-5.078c-5.446.6-6.626.7-6.626.647s1.207-.174,3-.523c1.448-.3,3.192-.647,4.936-1.021.51-.324,1.073-.647,1.663-.946a20.455,20.455,0,0,1,8.664-2.315,18.282,18.282,0,0,0-3.326-.1,18.578,18.578,0,0,0-7.323,2.041.333.333,0,0,1-.429-.124.286.286,0,0,1,.134-.4,19.386,19.386,0,0,1,7.592-2.116,19.732,19.732,0,0,1,7.564,1.046,14.8,14.8,0,0,1,7.94,3.908A12.537,12.537,0,0,1-1464-1122.9a8.594,8.594,0,0,0-.161-1.667,7.787,7.787,0,0,0-2.173-3.933.294.294,0,0,1,.027-.423.352.352,0,0,1,.456.025,8.542,8.542,0,0,1,2.334,4.207,8.094,8.094,0,0,1,.108,2.539l1.9-.05a.258.258,0,0,1,.134.025l.992.373a.291.291,0,0,1,.161.4.379.379,0,0,1-.322.174.171.171,0,0,1-.107-.025l-.912-.349-1.958.05c0,.05.027.075.027.124.027.075.053.2.107.349a4.9,4.9,0,0,0,1.476,1.942c1.341,1.195-.483,5.65-.564,5.824-.8,2.016-1.69,4.331-2.682,7.194,0,.074-.027.149-.027.224a2.649,2.649,0,0,1,2.468-.772,2.051,2.051,0,0,1,1.073,1.369,4.59,4.59,0,0,1-.3,3.734,5.923,5.923,0,0,1-2.28,2.166,21.319,21.319,0,0,1-2.253,1.145,24.713,24.713,0,0,1-1.154,4.431c-.939,2.091-1.154,1.519-2.039,3.583-1.1,2.564-.966,3.783-2.361,5.3-.161.174-.349.323-.51.473.027.1.027.174.054.249a.367.367,0,0,1,.161.025,11.55,11.55,0,0,1,2.575,1.444,9.246,9.246,0,0,1,1.234,1.12,2.063,2.063,0,0,1,.3.2l4.158.075c-.295-.349-.59-.672-.858-1-1.529-1.942-1.368-2.589-1.314-2.788a1.29,1.29,0,0,1,.161-.348v-.025c-.027-.3-.161-1.319.107-1.693.241-.3,5.124-5.674,5.687-6.272a.308.308,0,0,1,.4-.025.025.025,0,0,1,.027.025,1.977,1.977,0,0,1,1.9-.3,17.5,17.5,0,0,0,4.319.871c.322.025.59.05.832.05h1.261c.965.025,3.244,2.588,4.344,8.786.215,1.294.268,1.967.376,3.161h.107c.885,1.419,1.77,2.912,2.575,4.505.644.1,1.127.2,1.448.274,2.736,5.8,5.928,12.594,10.247,21.879a59.265,59.265,0,0,1,4.292,15.034c.456,2.763.751,6.4-1.421,9.459h.027a.267.267,0,0,1,.054.4,12.675,12.675,0,0,1-6.224,4.182,14.036,14.036,0,0,1-2.817.622c1.153,7.517,1.529,14.411,5.338,31.487,1.475,6.57,3.461,14.834,6.25,24.343-1.851.747-3.782,1.494-5.821,2.29,5.821,13.167,10.166,27.5,7.243,36.738-1.395,4.406-3.568,9.534-3.568,9.534a124.135,124.135,0,0,1-12.9,23.148,15.22,15.22,0,0,1-2.9,1.693,11.86,11.86,0,0,1-.054,1.419,17.92,17.92,0,0,1-.7,3.41c-2.736,9.234-.939,18.245-6.438,23.547-5.552,5.327-16.281,4.8-19.206,1.892-1.69-1.693-1.878-4.207-2.093-6.845a19.312,19.312,0,0,1,1.824-9.608c2.2-4.927,3.541-4.181,6.036-9.159a44.836,44.836,0,0,0,3.434-9.982,8.99,8.99,0,0,1-.778-1.593,25.9,25.9,0,0,0,3.514-11.5c.188-3.51-.456-6.995,1.234-11.873A21.812,21.812,0,0,1-1456.62-929c-1.931-2.738-4.828-6.869-8.289-11.972-4.131-6.123-7.216-10.878-9.523-14.612-1.958.3-3.97.6-5.981.871q-8.128,24.27-16.283,48.487-.8,41.032-1.583,82.115a20.87,20.87,0,0,1-3.809,2.663l.8,4.63a.946.946,0,0,1,.778.7c.107.622.268,1.344.456,2.141a39.073,39.073,0,0,0,3.568,10.279c2.387,4.406,3.756,3.709,5.848,8.065A15.087,15.087,0,0,1-1489-787.12c-.268,2.34-.483,4.58-2.227,6.123-1.4,1.248-4.534,2.045-8.028,2.045C-1503.139-778.952-1507.468-779.939-1510.323-782.39Zm22.211-299.562c.161-.6.3-1.22.4-1.842C-1487.843-1083.172-1487.977-1082.574-1488.111-1081.952Zm219.689,292.916c-3.058-1.22-6.062-3.46-12.018-7.965a12.063,12.063,0,0,1-3.943-4.431,22.421,22.421,0,0,1-.885-2.564,12.95,12.95,0,0,0-4.13-5.351c-.8.548-1.636,1.07-2.468,1.618l-6.063-5.651c.456-.8,1.154-1.991,2.119-3.385.617-.871.993-1.369,1.824-2.489.67-.9,1.583-2.191,2.709-3.784,1.261-2.39,2.495-4.754,3.755-7.119a26.479,26.479,0,0,1-3.138-4.33c1.073-3.112,2.146-6.248,3.219-9.359l.563-1.643q6.879-20.088,13.787-40.149l.563-1.643c1.207-3.51,2.414-6.995,3.621-10.5-1.958-13.117-3.729-23.422-5.016-30.491-.053-.224-.08-.448-.134-.672-.054-.349-.134-.672-.188-1.021-1.288-7.068-2.495-13.565-2.388-22.526a90.9,90.9,0,0,1,1.073-13.142c-1.663-.772-2.736-2.589-3.434-6.92a25.383,25.383,0,0,1-.429-8.513c1.18-9.756-6.92-13.416-9.844-29.745a138.214,138.214,0,0,1-1.663-16.851q-1.69-15.718-3.38-31.462a25.214,25.214,0,0,1,4.721-6.72c.376-9.011.724-18.021,1.1-27.031.483-1.344,1.288-3.535,2.334-6.173,5.578-14.064,9.468-19.888,14.511-32.085.3-.747.644-1.593,1.02-2.539a11.791,11.791,0,0,0,.3-1.17c.107-.473.161-.871.161-.871a19.556,19.556,0,0,1,.3-2.265c.3-1.444,2.763-6.5,3.7-9.184,1.341-3.833.885-6.4,1.717-6.472.644-.075,1.4,1.344,1.69,2.315a6.965,6.965,0,0,1,.188,2.439c.027,2.514.054,4.829.349,4.854.027,0,.027-.025.08-.05a3.245,3.245,0,0,0,.859-1.593c.08-.224.188-.448.268-.672.429-1,.8-1.743,1.02-2.141.349-.672.992-2.315,2.252-5.576.7-1.767.939-2.464,1.369-2.464.618-.025,1.073,1.419,1.126,1.568.4,1.269.268,2.589-1.206,6.771-.832,2.34-1.53,4.057-.778,4.655a1.167,1.167,0,0,0,.294.15,69.692,69.692,0,0,0,5.553-10.181c.456-1.045,1.449-3.46,2.334-3.36.375.05.617.523.778,1.021,1.046,3.037-.349,6.5-.778,7.517-1.69,3.958-3.7,6.4-3.541,6.5s2.495-2.215,4.828-5.177a15.385,15.385,0,0,1,4.292-3.908c1.046-.622,1.556-.747,1.824-.573.134.075.59.523-.59,3.36a30.317,30.317,0,0,1-5.982,8.935c-2.387,2.489-5.016,4.68-5.365,5.676a8.187,8.187,0,0,0,1.234.249,9.962,9.962,0,0,0,1.717.125.316.316,0,0,1,.322.3h.536c1.02,0,3.112-2.19,5.016-2.166.751,0,1.8.373,1.985.971.241.747-1.395,2.24-5.043,4.854-.8.572-10.246,2.141-10.3,2.141-.294-.025-.7.15-1.367.647a17.238,17.238,0,0,0-2.146,1.942c-1.663,4.729-2.28,6.4-2.709,7.641a121.744,121.744,0,0,0-5.419,23.05c.617,7.218,1.261,14.411,1.878,21.63.671.149,1.261.3,1.717.423.59,2.738,1.234,5.576,1.985,8.487.778,3.037,1.61,5.949,2.495,8.762q.282-.448.4-.6a.323.323,0,0,1,.429-.075l.027.025a10.9,10.9,0,0,1,1.368-1.145l-.027-.075a.26.26,0,0,1,.161-.374.306.306,0,0,1,.349.1c.081-.05.134-.1.215-.149.08.373.161.772.268,1.17a29.613,29.613,0,0,0,5.122-10.479v-.174c-.161-.523-.349-1.17-.536-1.867a5.271,5.271,0,0,1-.7-5.974,28.689,28.689,0,0,1,1.1-7.069c1.5-6.049,2.844-7.194,3.595-7.641a7.861,7.861,0,0,1,2.656-.872c.322-.075.617-.174.885-.248a3.177,3.177,0,0,0-1.341-1.767,4.077,4.077,0,0,0-4,0,.275.275,0,0,1-.349-.1.209.209,0,0,1,.08-.323,4.592,4.592,0,0,1,4.534,0,3.708,3.708,0,0,1,1.556,2.015c.644-.249,1.073-.447,1.153-.472a23.957,23.957,0,0,1,10.569-.747,18.988,18.988,0,0,1,2.79.7c.7-.024,1.448-.024,2.253.026a16.249,16.249,0,0,1,7.966,2.836.225.225,0,0,1,.053.324.25.25,0,0,1-.214.1.4.4,0,0,1-.161-.05,15.522,15.522,0,0,0-7.7-2.738c-.349-.024-.7-.049-1.019-.049a22,22,0,0,1,8.529,6.421,11.074,11.074,0,0,1,3.487,7.916c-.08,4.206-2.9,8.09-7.243,10.056-.322.422-.563.7-.644.8-.027.05-.3.324-.643.747a11.008,11.008,0,0,0-.671.92c-.511.772-.779,1.369-1.341,2.265,0,0-.429.672-1.18,1.668a39.273,39.273,0,0,1-6.867,6.995,32.687,32.687,0,0,1-4.238,2.713l1.261,1.917a.184.184,0,0,1,.054.125v.025a1.17,1.17,0,0,0,.295.025c1.1.05,3.273.125,6.063.224a22.279,22.279,0,0,1,11,.2c5.446,1.568,9.12,5.4,11.937,8.289,3.729,3.832,4.882,6.471,9.362,8.835a22.777,22.777,0,0,0,4.64,1.817c4.748,1.22,8.933,4.68,9.094,7.891.268,5.6-11.159,9.408-13.841,10.229,0,0-.215.05-.456.124-4.426,1.319-11.642,2.34-23.5.647v.05c.4,4.033.59,7.567,3.3,9.882,2.334,1.966,4.48,1.444,7,4.107a12.038,12.038,0,0,1,2.495,4.331c.429,1.444.027,3.336-1.046,5.45,7.672,1.668,15.343,3.36,23.015,5.028.617.124,1.234.274,1.824.4q13.117,2.875,26.234,5.725a6.048,6.048,0,0,1,4.963,6.323c-.241,2.688-.483,5.4-.724,8.089-.107,1.294-.241,2.614-.349,3.908q-2.253,25.315-4.453,50.653-.08.9-.161,1.792c-.376,4.207-.724,8.438-1.1,12.645a25.21,25.21,0,0,1-5.07,2.614c-.59.224-1.207.448-1.85.623-.162.05-.3.075-.43.124.107,1.27.268,2.464.457,3.559a5.078,5.078,0,0,1,.669.174,1.288,1.288,0,0,1,.885.97,17.135,17.135,0,0,0,1.288,4.157c.617,1.344,2.092,4.132,9.523,10.28,2.978,2.464,5.66,5.277,8.826,7.542,1.046.747,3.192,2.215,3.353,4.4a3.4,3.4,0,0,1-.591,2.315c-2.467,3.335-12.9.274-13.894-.025-3.139-.946-6.331-2.937-12.715-6.944a12.123,12.123,0,0,1-4.344-4.082,25.483,25.483,0,0,1-1.127-2.489,13.011,13.011,0,0,0-4.614-4.979c-.751.622-1.529,1.22-2.307,1.817l-6.572-5.128c.375-.821.966-2.066,1.8-3.535.536-.921.858-1.444,1.582-2.639.43-.722,1.02-1.718,1.717-2.911.188-1.419.375-2.813.563-4.232a22.046,22.046,0,0,1-2.844-1.892l-.7-11.874c-.054-.572-.081-1.145-.107-1.693-.563-9.532-1.1-19.091-1.663-28.625-.054-.6-.081-1.17-.107-1.767q-.121-2.015-.241-4.031h-.027a.27.27,0,0,1-.242-.1.226.226,0,0,1-.053-.224c-4.909-.8-9.2-1.394-12.955-1.867-.617-.074-1.261-.149-1.851-.224-5.875-.7-10.355-1.021-13.815-1.17a46.422,46.422,0,0,1-6.358-.622l-.3,10.453v.174q-.08,2.875-.161,5.675l-.375,13.765a.288.288,0,0,1-.3.274c-.51,7.715-1.179,15.158-2.011,22.277a4.774,4.774,0,0,1-.054.822,6.762,6.762,0,0,1-.7,2.141c-1.073,1.991-2.119,3.983-3.166,5.973-.322.573-.617,1.145-.912,1.717q-11.629,21.992-23.256,43.983c-.268.5-.536,1.021-.8,1.518-1.475,2.787-2.924,5.55-4.4,8.338a24.394,24.394,0,0,1-9.067,3.385l-2.146,3.311q.362.112.644.224a1.289,1.289,0,0,1,.778,1.045,17.149,17.149,0,0,0,.885,4.232c.483,1.394,1.69,4.306,8.5,11.026,2.736,2.713,5.124,5.725,8.073,8.239.966.822,2.951,2.464,2.924,4.655a3.766,3.766,0,0,1-.832,2.34,4.913,4.913,0,0,1-3.746,1.21C-1262.353-786.681-1267.749-788.769-1268.422-789.036Zm-358.37-5.626c-1.663-1.145-1.449-3.833-1.207-6.92.483-6.172,3.326-7.89,5.043-15.979.4-1.792,6.518-16.652,7.189-16.328a31.3,31.3,0,0,0,.7-6.7c.081-1.518.108-3.286.134-5.3a13.2,13.2,0,0,1-3.246-3.634c.939-27.231,8.636-78.481,12.392-107.006-.027-.025-.027-.075-.027-.125l1.609-17.348c-5.231.05-10.434.075-15.638.124a.262.262,0,0,1-.107.224.526.526,0,0,1-.188.05.1.1,0,0,0-.054-.025l-12.715,52.121a13.568,13.568,0,0,1-1.5,1.17c.027.672.08,1.344.107,2.091.268-.448.429-.5.536-.5.778.075.456,4.306,1.368,10.951.483,3.609.8,3.908.778,5.825a19.636,19.636,0,0,1-1.9,8.09,1.708,1.708,0,0,1-1.422.622,1.768,1.768,0,0,1-1.261-.7,5.939,5.939,0,0,0-.187-4.182,5.638,5.638,0,0,0-1.341-1.892,41.293,41.293,0,0,0-6.276,3.087c-8.021,4.8-8.074,8.538-13.627,10.181-4.855,1.444-9.308-.1-12.741-1.22-2.9-.946-3.595-1.742-3.782-2.464-.483-1.917,2.468-4.132,4.988-6.049,1.958-1.494,1.663-1.046,6.25-3.908,1.127-.7,2.495-1.518,4.211-2.514a24.41,24.41,0,0,1,2.87-1.319c.8-.647,2.495-1.991,6.062-4.854,1.744-1.419,3.326-4.156,3.917-9.557a13.416,13.416,0,0,1-6.384-4.356q-1.006-36.029-2.012-72.034c-.161-5.924,3.89-11.226,9.979-13.043,11.507-3.41,28.487-8.761,33.288-9.483a8.75,8.75,0,0,1-.214-4.207c.563-2.713,2.441-4.281,3.246-5.2,1.4-1.593,1.556-3.336,1.261-5.526-4.963.224-9.012-.7-11.454-3.161-3.675-3.684-.375-7.491-5.1-13.44-6.518-8.214-16.47-5.551-19.421-11.948-.535-1.195-.911-2.813,6.116-19.315.671-1.568,1.288-2.962,1.824-4.207q-9.134-15.232-18.267-30.491a12.636,12.636,0,0,1,1.153-1.742c-.161-.1-.349-.2-.536-.3-1.18-.6-1.234-.473-2.6-1.169-1.18-.574-4.855-3.734-6.921-5.153-2.924-2.016-5.258-2.34-5.1-2.987.107-.473,1.529-.647,2.441-.622a7.694,7.694,0,0,1,2.146.5c2.173.672,4.158,1.269,4.265,1.045,0-.025,0-.025-.027-.074-.215-.473-.671-.722-1.154-1.07-.188-.124-.349-.249-.51-.373-.751-.573-1.287-1.07-1.583-1.32-.51-.448-1.744-1.369-4.211-3.161-1.341-1-1.878-1.369-1.771-1.668.161-.448,1.529-.423,1.663-.423,1.207.05,2.28.5,5.5,2.688,1.8,1.245,3.085,2.215,3.809,1.817a.6.6,0,0,0,.188-.174,63.82,63.82,0,0,0-7.27-6.8c-.778-.622-2.6-1.992-2.28-2.614.134-.249.59-.3,1.073-.3,2.87.025,5.5,1.967,6.25,2.564a62.271,62.271,0,0,1,4.641,4.331c.134-.1-1.234-2.439-3.165-4.953a12.671,12.671,0,0,1-2.226-4.232c-.268-.971-.241-1.369-.027-1.518.107-.1.617-.323,2.736,1.319a26.244,26.244,0,0,1,6.089,6.8c1.529,2.439,2.682,4.978,3.46,5.476a5.361,5.361,0,0,0,.537-.846,10.537,10.537,0,0,0,.563-1.245.3.3,0,0,1,.349-.174,2.449,2.449,0,0,1,.134-.4c.268-.747-1.046-2.887-.536-4.281.214-.573.8-1.245,1.368-1.22.7.025,1.529,1.643,2.815,5.028.3.747-.857,8.14-.884,8.189-.107.174-.055.548.187,1.17.027.075.055.124.082.2a17.6,17.6,0,0,1,4.344-.323q11.468,12.73,22.907,25.438c1.234,1.12,2.468,2.215,3.7,3.336a5.662,5.662,0,0,0,3.46-1.444c4.131-3.709,1.127-10.031,6.384-14.661a14.781,14.781,0,0,1,8.423-3.261,31.128,31.128,0,0,1,2.924-1.394,22.223,22.223,0,0,1,11.909-2.191,18.96,18.96,0,0,1,8.477,3.361,23.788,23.788,0,0,1,6.036,1.991q-3.219-20.646-6.465-41.269a17.252,17.252,0,0,1,5.2-2.788,1.538,1.538,0,0,0-.376-.821c-.053-.025-4.882-6-5.016-6.8-.617-3.56-.724-5.352-.107-5.675a1.9,1.9,0,0,1,1.824.448c1.18,1,1.1,3.46,1.744,4.008l.322.3a.273.273,0,0,1,.375,0,9.258,9.258,0,0,0,1.127.846c.322.2.617.373.912.523.4-.8.134-3.535.215-6.346a24.317,24.317,0,0,1,1.851-8.663c1.02-2.39,1.556-2.414,1.717-2.39.268.05.483.373.751,1.344a11.781,11.781,0,0,1,.242,4.68,21.433,21.433,0,0,0-.242,5.749c.188,0,.456-2.564,1.851-5.874.374-.846,1.662-3.734,4.183-5.028.4-.2.859-.373,1.1-.2.617.4-.268,2.414-.644,3.311a56.307,56.307,0,0,0-2.87,9.209.719.719,0,0,0,.268.049c.831.025,1.475-1.419,2.414-3.286,1.663-3.359,2.387-4.231,3.434-4.8.107-.075,1.288-.7,1.663-.373.241.224-.027.771-.7,2.24-1.234,2.663-1.851,4.006-2.066,4.629a14.854,14.854,0,0,1-.7,1.867c-.081.174-.161.373-.241.547a2.834,2.834,0,0,0-.456,1.444c0,.05,0,.05.027.075.188.149,1.636-1.245,3.192-2.788a7.689,7.689,0,0,1,1.609-1.394c.778-.423,2.119-.9,2.468-.523.456.5-1.422,1.817-2.951,4.879-1.073,2.166-2.682,6.572-3.407,7.617-.832,1.195-.939,1.12-1.663,2.165.59.324,1.073.622,1.449.871q7.2,26.658,14.459,53.316a164.891,164.891,0,0,1-4.775,43.633,84.693,84.693,0,0,1-6.706,25.165c-3.434,7.716-7.055,10.729-6.465,16.9.456,4.778,2.763,5.774,4.587,15.183,0,0,1.475,7.617-1.288,11.052a6.556,6.556,0,0,1-2.575,1.917,4.974,4.974,0,0,1-1.18.621c-4.881,29.969-34.468,116.739-40.611,138.593a15.517,15.517,0,0,1-7.3,4.132c-.483,3.609-1.046,5.078-.322,7.443.054.174.108.323.161.473a.076.076,0,0,1,.08.05c.134.324.3.7.429,1.1,0,.025.027.025.027.05v.025a14.822,14.822,0,0,1,.7,2.639,18.525,18.525,0,0,1-1.073,9.184c-4.533,12.77-1.985,14.736-6.143,19.962-3.991,5-10.66,8.616-14.729,8.616A4.086,4.086,0,0,1-1626.792-794.662Zm64.137-309.343a5.4,5.4,0,0,1,.161.7c-.4-2.663-.832-5.3-1.234-7.965a19.386,19.386,0,0,0-5.231-1.917A18.39,18.39,0,0,1-1562.655-1104.005Zm147.88,222.623c-2.79-.672-4.318-3.135-4.988-4.206-6.331-10.23,2.333-28.749,5.176-34.35a.084.084,0,0,1,.161.05c-.081.274-.188.548-.268.846.617-1.1,1.261-2.091,1.851-2.937.322-5.85,5.928-9.733,10.381-11.052a16.181,16.181,0,0,1,6.17-.523c1.288-.224,2.6-.473,3.89-.7-.644-9.533-1.261-8.313-1.636-10.752-.51-3.36-1.073-6.3-1.609-8.936-9.094,1.22-17.49,2.688-25.08,4.257a240.4,240.4,0,0,1,6.517-31.412c.8-2.887,1.663-5.7,2.522-8.437a6.434,6.434,0,0,1-.081-3.136,7.19,7.19,0,0,1,1.9-3.435,79.247,79.247,0,0,0,5.634-10.554,87.9,87.9,0,0,0,4.721-14.237,182.3,182.3,0,0,0,4.48-25.463c-.831-1.369-1.717-2.838-2.575-4.381-2.307-.5-5.9-.274-10.891-.1-10.327.349-2.441-7.816-1.878-12.073.59-4.28-6.438-7.989-5.875-11.524.3-1.867,3.434-3.51,7.082-4.531-.375-1.344-.724-2.738-1.046-4.132a118.683,118.683,0,0,1-3-26.932,16.622,16.622,0,0,1,2.468-2.141c-1.529-10.08-4.024-25.687-5.043-26.011a8.112,8.112,0,0,0-.8-.2,16.551,16.551,0,0,0-1.93,0,19.138,19.138,0,0,1-2.119-.124c-3.809-.448-4.185-1.544-8.772-2.788-4.748-1.269-8.235-1.145-8.316-2.09-.027-.2.134-.4.322-.573a.207.207,0,0,1-.081-.148.267.267,0,0,1,.081-.274,10.763,10.763,0,0,1-1.341-.2c-.858-.2-1.019-.322-1.073-.447-.134-.249.054-.622.429-1.02a.539.539,0,0,1-.08-.125v-.05c-1.154.125-1.985-.1-2.146-.523-.161-.4.268-.871.51-1.12a3.576,3.576,0,0,1,1.663-1c0-.049-.027-.124,0-.174-.751-.025-1.5-.15-1.609-.5-.214-.647,1.69-1.792,2.844-2.365,4.721-2.29,10.489-1.27,13.52-.722,2.173.4,4.453.323,6.625.722a5.664,5.664,0,0,0,2.226.124,3.469,3.469,0,0,0,.3-.448,6.026,6.026,0,0,0,.617-1.419,5.512,5.512,0,0,0,.081-2.539,3.5,3.5,0,0,1,.054-1.891c.4-1.046,1.5-1.842,3.3-2.415a.345.345,0,0,1,.456.2.2.2,0,0,1,0,.174.454.454,0,0,1,.188.523,7.261,7.261,0,0,0-.4,2.813,24.225,24.225,0,0,0,.778,3.111s.858,3.111,1.153,4.531c.081.348.134.722.134.722.027.249.054.448.08.622.027.249.054.423.054.423,0,2.041,6.868,21.082,10.542,32.731a15.206,15.206,0,0,1,2.656.821c2.951,6.472,5.927,12.969,8.878,19.441.993,1.942,1.985,3.857,2.978,5.8,1.851-1.693-2.441-5.649-.483-10.005,1.287-2.813,3.46-2.016,8.906-6.8,3.89-3.41,4.131-4.555,6.653-5.576a13.881,13.881,0,0,1,9.146-.075c.537-.025,1.127-.05,1.69-.075a13.361,13.361,0,0,1,9.013-.2,13.5,13.5,0,0,1,6.465,5.725c2.146,3.535,1.636,6.323,4.721,8.464a5.905,5.905,0,0,0,2.306,1.095,3.9,3.9,0,0,0,1.422.025c1.18-5.153,2.119-10.106,2.817-14.786a25.617,25.617,0,0,1,3.541-.622c3.031-11.051,6.465-22.277,10.328-33.6.456-1.369.912-2.738,1.4-4.082a3.7,3.7,0,0,0-.027-.4c0-.174-.027-.349-.027-.573,0,0-.027-.323-.027-.672,0-1.319.215-4.281.215-4.281a26.322,26.322,0,0,0,.134-2.962,6.639,6.639,0,0,0-.858-2.489.39.39,0,0,1,.08-.5.4.4,0,0,1-.027-.174.329.329,0,0,1,.376-.274c1.717.249,2.9.8,3.434,1.693a3.17,3.17,0,0,1,.4,1.693,4.84,4.84,0,0,0,.536,2.29,6.914,6.914,0,0,0,.832,1.195c.134.125.241.249.349.348a5.273,5.273,0,0,0,2.012-.473c1.9-.722,3.969-1,5.9-1.693,2.656-.971,7.726-2.813,12.447-1.469,1.153.323,3.085,1.07,3,1.693-.027.349-.671.573-1.368.722a.3.3,0,0,1,.027.149c.644.075,1.449.174,1.69.648.349.721-.456,1.643-1.18,1.767v.05c0,.05-.027.075-.053.125.429.3.644.622.59.871-.054.125-.161.249-.912.548a8.547,8.547,0,0,1-1.181.4.258.258,0,0,1,.134.224.336.336,0,0,1-.054.149.7.7,0,0,1,.4.473c.107.871-3.112,1.294-7.189,3.211-3.943,1.867-4.1,2.912-7.484,3.932a15.222,15.222,0,0,1-2.681.548,5.231,5.231,0,0,0-.939.2,7.14,7.14,0,0,0-.7.3c-.644.323-4.239,21.208-6.277,33.255a20.119,20.119,0,0,1,3.836,2.838c-.51,7.069-1.341,14.561-2.548,22.377,1.825,1.846,4.014,1.082,6.009.318a7.161,7.161,0,0,1,3.406-.791c3,.547,3,4.9-1.583,14.089s-4.586,5.849-3,12.768-1.152,4.779-7.885,7.841-.724,7.194-4.158,9.881a6.369,6.369,0,0,1-2.495,1.046,94.345,94.345,0,0,0,8.316,33.13,95.765,95.765,0,0,0,5.714,10.629.268.268,0,0,1,.188.3,9.916,9.916,0,0,1,1.341,1.842,7.8,7.8,0,0,1,.991,3.535,6.216,6.216,0,0,1-.052.8c1.367,3.558,2.708,7.168,4.049,10.852q4.386,12.06,7.967,23.621c-5.016-.722-10.354-1.394-16.014-1.966a8.181,8.181,0,0,1,.939.7,9.249,9.249,0,0,1,2.949,5.178A36.155,36.155,0,0,1-1303-944.43c-.107-.3-.188-.572-.268-.821a.084.084,0,0,1,.161-.05c2.79,5.5,11.293,23.671,5.231,33.777-.644,1.046-2.146,3.459-4.882,4.131-4.935,1.22-11.587-3.409-14.136-8.86-2.012-4.306,0-6-.161-11.027-1.824,2.614-3.675,5.252-5.5,7.866-5.741,9.657-17.006,17.548-27.28,16a18.358,18.358,0,0,1-6.036-2.091,15.054,15.054,0,0,1-1.154,1.07c-3.058,2.564-10.166,8.488-18.347,7.194a15.11,15.11,0,0,1-4.238-1.319c-.51-.249-.966-.5-1.422-.772q-4.627-2.464-9.495-4.929c-2.87-1.444-5.714-2.813-8.5-4.132-.161.622-.322,1.22-.483,1.842-2.253,9.309,1.717,10.579-.885,16.13-2.321,4.952-7.951,9.229-12.7,9.229A7.1,7.1,0,0,1-1414.775-881.382Zm92.49-74.871c.215-.05.456-.075.7-.125-.215-.025-.456-.025-.7-.05Z" transform="translate(1674.215 1180.523)" fill="#003d68" opacity="0.06"/>
</svg>
