<svg xmlns="http://www.w3.org/2000/svg" width="100" height="100" viewBox="0 0 100 100">
  <g id="mech-icon" transform="translate(-57.335 -18)">
    <rect id="Bg_Supp." data-name="Bg Supp." width="100" height="100" transform="translate(57.335 18)" fill="#fff" opacity="0"/>
    <g id="icon" transform="translate(59.193 21.733)">
      <path id="XMLID_4_" d="M31.373,13.089a17.219,17.219,0,0,0-11.866,7.032,18.343,18.343,0,0,0-3.516,13.4,17.219,17.219,0,0,0,7.032,11.866A17.939,17.939,0,0,0,34.01,49.126a10.7,10.7,0,0,0,2.637-.22A17.946,17.946,0,0,0,52.028,28.471,18.44,18.44,0,0,0,31.373,13.089ZM35.987,45.83A14.03,14.03,0,0,1,25,42.974a14.813,14.813,0,0,1-5.713-9.888h0A14.03,14.03,0,0,1,22.144,22.1a14.813,14.813,0,0,1,9.888-5.713c.659,0,1.318-.22,1.978-.22A14.877,14.877,0,0,1,48.732,28.91,15.067,15.067,0,0,1,35.987,45.83Z" transform="translate(14.757 14.759)" fill="#fff"/>
      <path id="XMLID_64_" d="M91.616,32.682l-.439-1.1H81.728l-.22.22c-1.538.659-3.736-.22-4.834-2.417a9.184,9.184,0,0,1-.879-2.2V25.431c.22-.439,1.1-1.538,1.758-2.417l.22-.439s1.318-2.637,3.076-5.933l.659-1.1-.439-.879a40,40,0,0,0-11.426-8.57l-1.1-.659-6.372,6.592v.439C61.511,14,59.314,14.883,56.9,14.224a6.241,6.241,0,0,1-3.3-2.2c-.22-.439-.439-.659-.439-1.1V9.39s-.22-.879-.659-2.2L50.744.6h-2.2A44.582,44.582,0,0,0,35.362,2.578l-1.1.439v9.449l.22.22a.807.807,0,0,1,.22.659,4.376,4.376,0,0,1-2.637,4.175c-2.2,1.318-4.395,1.1-5.494-.22l-.22-.22-7.911-4.615-.879.879a47.152,47.152,0,0,0-8.57,11.427l-.659,1.1,6.592,6.372.22.22a2.251,2.251,0,0,1,1.318,1.1c.22.439.439,1.1.659,1.538a9.014,9.014,0,0,1-.22,2.417,6.241,6.241,0,0,1-2.2,3.3,2.642,2.642,0,0,1-1.758.439H12.07c-.22,0-3.736,1.1-7.471,1.978l-1.1.22v2.2A43.525,43.525,0,0,0,5.478,58.831l.439,1.1h9.669c1.538-.659,3.736.439,4.834,2.417a9.183,9.183,0,0,1,.879,2.2,3.442,3.442,0,0,1-1.1,3.3l-.22.22-.22.22c0,.22-1.318,2.417-2.857,5.054l-1.538,2.857.879.879a43.277,43.277,0,0,0,11.427,8.57l1.1.659.879-.879a74.272,74.272,0,0,0,5.274-5.494l.22-.22.22-.22a2.251,2.251,0,0,1,1.1-1.318,4.828,4.828,0,0,1,3.955-.439,4.834,4.834,0,0,1,3.736,3.3v1.538c0,.22,1.1,3.736,1.978,7.471l.22,1.1h2.2a44.582,44.582,0,0,0,13.184-1.978l1.1-.439V79.267l-.22-.439c0-.22-.22-.439-.22-.659a4.376,4.376,0,0,1,2.637-4.175c2.2-1.318,4.395-1.1,5.494.22l.22.22.22.22c.22.22,3.3,1.978,6.592,3.736l1.1.659.879-.879A43.277,43.277,0,0,0,88.1,66.742l.659-1.1-6.592-6.592-.22-.22a2.25,2.25,0,0,1-1.318-1.1c-.22-.439-.439-1.1-.659-1.538a9.855,9.855,0,0,1,.22-2.417,6.241,6.241,0,0,1,2.2-3.3h0a2.642,2.642,0,0,1,1.758-.439h.879c.22,0,2.2-.659,4.834-1.318l3.736-1.1v-2.2A36.757,36.757,0,0,0,91.616,32.682ZM88.979,45.867c-1.978.659-3.736,1.1-4.615,1.318a6.958,6.958,0,0,0-3.516.879,8.456,8.456,0,0,0-3.736,5.274,10.721,10.721,0,0,0-.22,3.736,10.879,10.879,0,0,0,.879,2.857,5.591,5.591,0,0,0,2.637,2.417L84.8,66.522a40.569,40.569,0,0,1-6.592,8.57c-2.417-1.318-4.615-2.637-5.274-3.076-2.2-2.417-6.153-2.857-9.669-.879-2.857,1.758-4.615,4.615-4.175,7.691a1.678,1.678,0,0,0,.439,1.1v6.153a43.923,43.923,0,0,1-10.767,1.538c-.659-2.637-1.318-5.054-1.538-5.933V80.366c-.439-2.857-2.857-5.274-6.153-6.153a9.58,9.58,0,0,0-6.592.659,5.591,5.591,0,0,0-2.417,2.637c-.659.659-2.417,2.417-4.175,4.395a40.569,40.569,0,0,1-8.57-6.592l.22-.439a41.489,41.489,0,0,0,2.637-4.834,6.18,6.18,0,0,0,1.978-6.153,4.449,4.449,0,0,0-.879-3.076c-1.978-3.516-5.713-5.054-8.79-3.955H8.334A43.924,43.924,0,0,1,6.8,46.086c2.637-.659,5.054-1.318,5.933-1.538a6.448,6.448,0,0,0,3.516-.879A8.456,8.456,0,0,0,19.981,38.4a10.721,10.721,0,0,0,.22-3.736,10.879,10.879,0,0,0-.879-2.857,5.591,5.591,0,0,0-2.637-2.417L12.29,25.211a40.569,40.569,0,0,1,6.592-8.57l5.274,3.076c2.2,2.417,6.153,2.857,9.669.879,2.857-1.758,4.615-4.615,4.175-7.471a3.123,3.123,0,0,0-.439-1.318V5.654A43.924,43.924,0,0,1,48.327,4.116l1.1,4.175c.22.879.439,1.538.439,1.758v1.318a6.58,6.58,0,0,0,.879,2.2A8.456,8.456,0,0,0,56.018,17.3c3.955,1.1,7.691-.439,9.009-3.516L69.2,9.39a40.569,40.569,0,0,1,8.57,6.592,30.876,30.876,0,0,0-2.417,4.834c-.659.879-2.2,2.417-2.417,3.736a12.53,12.53,0,0,0-.22,2.857,11.488,11.488,0,0,0,1.318,3.516c1.978,3.516,5.713,5.054,8.79,3.955h6.153a43.924,43.924,0,0,1,1.538,10.767Z" transform="translate(0 0)" fill="#fff"/>
    </g>
  </g>
</svg>
