<svg xmlns="http://www.w3.org/2000/svg" width="26" height="26" viewBox="0 0 26 26">
  <g id="phone-icon" transform="translate(-790 -1724.168)">
    <rect id="Bg_Supp." data-name="Bg Supp." width="26" height="26" transform="translate(790 1724.168)" fill="#fff" opacity="0"/>
    <path id="phone-icon-2" data-name="phone-icon" d="M20.13,15.457a4.469,4.469,0,0,1-.143.98,5.411,5.411,0,0,1-.3.952,3.8,3.8,0,0,1-1.744,1.473,5.665,5.665,0,0,1-2.659.709,5.833,5.833,0,0,1-.758-.049,6.019,6.019,0,0,1-.822-.174q-.45-.125-.672-.2t-.793-.285q-.572-.208-.7-.25a13.115,13.115,0,0,1-2.5-1.154,21.442,21.442,0,0,1-3.774-3,21.08,21.08,0,0,1-3.088-3.67A12.438,12.438,0,0,1,.986,8.354Q.944,8.229.729,7.673T.436,6.9Q.357,6.686.229,6.248a5.574,5.574,0,0,1-.179-.8A5.366,5.366,0,0,1,0,4.712,5.275,5.275,0,0,1,.729,2.127,3.766,3.766,0,0,1,2.245.431,5.8,5.8,0,0,1,3.224.139,4.846,4.846,0,0,1,4.232,0a.822.822,0,0,1,.3.042Q4.789.125,5.29,1.1q.157.264.429.751t.5.883q.229.4.443.744.043.056.25.348a3.862,3.862,0,0,1,.307.493.886.886,0,0,1,.1.4,1.145,1.145,0,0,1-.407.7,6.91,6.91,0,0,1-.886.765,8.55,8.55,0,0,0-.886.737q-.407.389-.407.639A.917.917,0,0,0,4.8,7.86a2.988,2.988,0,0,0,.122.285q.05.1.2.334t.164.264A14.627,14.627,0,0,0,7.777,12.01a14.985,14.985,0,0,0,3.36,2.419q.029.014.272.16t.343.195q.1.049.293.118a.99.99,0,0,0,.322.07,1.1,1.1,0,0,0,.658-.4,8.44,8.44,0,0,0,.758-.862,6.841,6.841,0,0,1,.786-.862,1.2,1.2,0,0,1,.715-.4.954.954,0,0,1,.407.1,4.018,4.018,0,0,1,.508.3q.3.2.357.243.357.209.765.431t.908.487q.5.264.772.417,1,.487,1.087.737A.759.759,0,0,1,20.13,15.457Z" transform="translate(793 1727.168)" fill="#7cbbe8"/>
  </g>
</svg>
